<svg width="20" height="21" viewBox="0 0 20 21" fill="none" xmlns="http://www.w3.org/2000/svg">
<path d="M11.3158 9.82493e-05C11.2112 -0.00134993 11.1073 0.017568 11.0102 0.0557529C10.9132 0.0939377 10.8248 0.150628 10.7503 0.222528C10.6758 0.294429 10.6166 0.380107 10.5763 0.474582C10.5359 0.569057 10.5151 0.670445 10.5151 0.772855C10.5151 0.875265 10.5359 0.976653 10.5763 1.07113C10.6166 1.1656 10.6758 1.25128 10.7503 1.32318C10.8248 1.39508 10.9132 1.45177 11.0102 1.48996C11.1073 1.52814 11.2112 1.54706 11.3158 1.54561C15.2491 1.54561 18.421 4.6504 18.421 8.50042C18.4195 8.60282 18.4388 8.70449 18.4778 8.79951C18.5169 8.89454 18.5748 8.98103 18.6482 9.05395C18.7217 9.12688 18.8092 9.18478 18.9057 9.22431C19.0023 9.26383 19.1058 9.28419 19.2105 9.28419C19.3151 9.28419 19.4187 9.26383 19.5152 9.22431C19.6117 9.18478 19.6992 9.12688 19.7727 9.05395C19.8461 8.98103 19.9041 8.89454 19.9431 8.79951C19.9821 8.70449 20.0014 8.60282 19.9999 8.50042C19.9999 3.81509 16.1024 9.82493e-05 11.3158 9.82493e-05ZM4.41927 0.00613541C4.15647 -0.0138678 3.88607 0.0146277 3.62055 0.097699L2.48775 0.452885C1.36407 0.804232 0.503117 1.74578 0.225225 2.92913C-0.435295 5.74093 0.357156 9.16404 2.60082 13.1983C4.8429 17.2275 7.29965 19.65 9.97226 20.4661C11.1044 20.8118 12.3288 20.5069 13.1856 19.6651L14.046 18.8189C14.8492 18.0297 14.9658 16.7454 14.3184 15.8144L13.0212 13.949C12.4643 13.1484 11.4753 12.8085 10.5674 13.1048L8.59583 13.7487C8.33267 13.8348 8.0375 13.7895 7.82487 13.6149C7.02224 12.955 6.34127 12.1538 5.78233 11.2131C5.22233 10.2704 4.861 9.31451 4.69784 8.34547C4.65521 8.09201 4.75402 7.83546 4.94455 7.65824L6.63553 6.08757C7.35236 5.42197 7.57044 4.35159 7.17623 3.44128L6.27163 1.35242C5.93058 0.564984 5.20765 0.0661448 4.41927 0.00613541ZM11.3158 3.09113C11.2112 3.08968 11.1073 3.1086 11.0102 3.14678C10.9132 3.18497 10.8248 3.24166 10.7503 3.31356C10.6758 3.38546 10.6166 3.47113 10.5763 3.56561C10.5359 3.66008 10.5151 3.76147 10.5151 3.86388C10.5151 3.96629 10.5359 4.06768 10.5763 4.16216C10.6166 4.25663 10.6758 4.34231 10.7503 4.41421C10.8248 4.48611 10.9132 4.5428 11.0102 4.58098C11.1073 4.61917 11.2112 4.63809 11.3158 4.63664C13.5055 4.63664 15.2631 6.35705 15.2631 8.50042C15.2616 8.60282 15.281 8.70449 15.32 8.79951C15.359 8.89454 15.4169 8.98103 15.4904 9.05395C15.5638 9.12688 15.6513 9.18478 15.7479 9.22431C15.8444 9.26383 15.948 9.28419 16.0526 9.28419C16.1572 9.28419 16.2608 9.26383 16.3573 9.22431C16.4538 9.18478 16.5414 9.12688 16.6148 9.05395C16.6883 8.98103 16.7462 8.89454 16.7852 8.79951C16.8242 8.70449 16.8435 8.60282 16.8421 8.50042C16.8421 5.52196 14.3587 3.09113 11.3158 3.09113ZM11.3158 6.18215C11.2112 6.18071 11.1073 6.19962 11.0102 6.23781C10.9132 6.27599 10.8248 6.33268 10.7503 6.40458C10.6758 6.47648 10.6166 6.56216 10.5763 6.65664C10.5359 6.75111 10.5151 6.8525 10.5151 6.95491C10.5151 7.05732 10.5359 7.15871 10.5763 7.25318C10.6166 7.34766 10.6758 7.43334 10.7503 7.50524C10.8248 7.57714 10.9132 7.63383 11.0102 7.67201C11.1073 7.7102 11.2112 7.72912 11.3158 7.72767C11.7613 7.72767 12.1053 8.06433 12.1053 8.50042C12.1038 8.60282 12.1231 8.70449 12.1621 8.79951C12.2011 8.89454 12.259 8.98103 12.3325 9.05395C12.406 9.12688 12.4935 9.18478 12.59 9.22431C12.6865 9.26383 12.7901 9.28419 12.8947 9.28419C12.9993 9.28419 13.1029 9.26383 13.1994 9.22431C13.296 9.18478 13.3835 9.12688 13.4569 9.05395C13.5304 8.98103 13.5883 8.89454 13.6273 8.79951C13.6663 8.70449 13.6857 8.60282 13.6842 8.50042C13.6842 7.22924 12.6145 6.18215 11.3158 6.18215Z" fill="#260FCE"/>
</svg>
