<svg width="18" height="15" viewBox="0 0 18 15" fill="none" xmlns="http://www.w3.org/2000/svg">
<path d="M18 0.25C17.2868 0.66925 15.9968 1.117 15.1553 1.279C14.4833 0.5665 13.5248 0.25 12.4628 0.25C10.4228 0.25 9 1.97875 9 4V5.5C6 5.5 3.075 3.21475 1.25475 1C0.9345 1.54075 0.7545 2.17375 0.7545 2.84275C0.7545 4.207 2.00775 5.5915 3 6.25C2.39475 6.23125 1.24875 5.76925 0.75 5.5V5.54275C0.75 7.318 1.99575 8.52325 3.684 8.85925C3.37575 8.944 3 9.25 1.554 9.25C2.0235 10.7013 4.38375 11.4685 6 11.5C4.7355 12.4803 2.481 13 0.75 13C0.45075 13 0.28875 13.0165 0 12.9827C1.6335 14.0177 3.915 14.5 6 14.5C12.7928 14.5 16.5 9.3115 16.5 4.4725C16.5 4.3135 16.4947 3.781 16.4865 3.625C17.2125 3.1135 17.5065 2.578 18 1.84C17.3385 2.13325 16.5007 2.4085 15.75 2.5C16.5135 2.047 17.7248 1.1035 18 0.25Z" fill="white"/>
</svg>
