<svg width="20" height="20" viewBox="0 0 20 20" fill="none" xmlns="http://www.w3.org/2000/svg">
<g clip-path="url(#clip0_89_1029)">
<path d="M19.7672 9.31604C19.4632 8.82593 18.9261 8.53296 18.3304 8.53296H5.06623C4.40873 8.53296 3.81073 8.9036 3.54233 9.47748L0.0340271 16.8333C0.166474 17.3719 0.669556 17.7743 1.26877 17.7743H15.3809C15.9842 17.7743 16.5357 17.4331 16.8051 16.8933L19.8375 10.8154C20.0769 10.3344 20.0504 9.77396 19.7672 9.31604Z" fill="#2980B9"/>
<path d="M2.82822 8.34594C3.09631 7.77221 3.69446 7.40142 4.35211 7.40142H16.8425V5.80383C16.8425 5.14526 16.2869 4.60937 15.6041 4.60937H8.32108C8.3104 4.60937 8.30307 4.60663 8.30033 4.60464L6.99677 2.78198C6.7659 2.45865 6.38458 2.26562 5.97718 2.26562H1.23871C0.555573 2.26562 0 2.80151 0 3.46008V14.2755L2.82822 8.34594Z" fill="#2980B9"/>
</g>
<defs>
<clipPath id="clip0_89_1029">
<rect width="20" height="20" fill="white"/>
</clipPath>
</defs>
</svg>
