<svg width="20" height="20" viewBox="0 0 20 20" fill="none" xmlns="http://www.w3.org/2000/svg">
<g clip-path="url(#clip0_89_1016)">
<path d="M17.6275 13.8497C20.7916 10.6856 20.7916 5.53704 17.6275 2.37288C14.4634 -0.791285 9.31492 -0.791285 6.15082 2.37288C3.46646 5.05724 3.05991 9.04957 4.93009 12.1672C4.93009 12.1672 5.06442 12.3925 4.88299 12.5738C3.84794 13.6088 0.742603 16.7142 0.742603 16.7142C-0.0815061 17.5383 -0.277692 18.6906 0.453124 19.4215L0.578953 19.5472C1.30977 20.2782 2.46214 20.082 3.28619 19.2579C3.28619 19.2579 6.38495 16.1591 7.41788 15.1262C7.60801 14.9361 7.83331 15.0704 7.83331 15.0704C10.9508 16.9406 14.9432 16.5341 17.6275 13.8497ZM7.64905 12.3514C5.31105 10.0134 5.31112 6.20929 7.64911 3.8713C9.9871 1.53337 13.7912 1.53331 16.1292 3.8713C18.4672 6.20923 18.4672 10.0134 16.1292 12.3514C13.7912 14.6893 9.9871 14.6893 7.64905 12.3514Z" fill="black" fill-opacity="0.5"/>
<path d="M8.16635 7.62994C8.05753 7.62994 7.94691 7.60855 7.84028 7.56352C7.41434 7.38325 7.21506 6.89178 7.39533 6.46578C8.52838 3.78818 11.6285 2.53163 14.306 3.66467C14.732 3.84494 14.9313 4.33641 14.751 4.76241C14.5706 5.18841 14.0793 5.38756 13.6532 5.20735C11.8264 4.43434 9.71103 5.29169 8.93808 7.11851C8.80285 7.43801 8.49269 7.62994 8.16635 7.62994Z" fill="black" fill-opacity="0.5"/>
</g>
<defs>
<clipPath id="clip0_89_1016">
<rect width="20" height="20" fill="white"/>
</clipPath>
</defs>
</svg>
